<?xml version="1.0" encoding="utf-8"?>
<!-- Generator: Adobe Illustrator 16.0.0, SVG Export Plug-In . SVG Version: 6.00 Build 0)  -->
<!DOCTYPE svg PUBLIC "-//W3C//DTD SVG 1.1//EN" "http://www.w3.org/Graphics/SVG/1.1/DTD/svg11.dtd">
<svg version="1.1" id="Layer_1" xmlns="http://www.w3.org/2000/svg" xmlns:xlink="http://www.w3.org/1999/xlink" x="0px" y="0px"
	 width="100px" height="100px" viewBox="0 0 100 100" style="enable-background:new 0 0 100 100;" xml:space="preserve">
<style type="text/css">
<![CDATA[
	.st0{fill:#FFFFFF;stroke:#FFFFFF;stroke-width:4;stroke-miterlimit:10;}
	.st1{fill:none;stroke:#FFFFFF;stroke-width:4;stroke-linecap:round;stroke-miterlimit:10;}
	.st2{fill:#FFFFFF;}
	.st3{fill:none;stroke:#FFFFFF;stroke-width:4;stroke-miterlimit:10;}
]]>
</style>
<g>
	<path class="st3" d="M42.183,6.464c0,0-1.557,19.857,11.125,25.821"/>
</g>
<g>
	<path class="st2" d="M60.635,19.996C55.707,11.372,42.183,6.464,42.183,6.464"/>
	<path class="st3" d="M60.635,19.996C55.707,11.372,42.183,6.464,42.183,6.464"/>
</g>
<g>
	<path class="st2" d="M67.218,38.086c0,0-1.915-11.836-6.583-18.09"/>
	<path class="st3" d="M67.218,38.086c0,0-1.915-11.836-6.583-18.09"/>
</g>
<path class="st0" d="M79.498,27.83c-5.25,9.333-12.28,10.256-12.28,10.256"/>
<g>
	<path class="st2" d="M82.957,79.547c0,0-8.348-4.938-8.901-11.691"/>
	<path class="st1" d="M82.957,79.547c0,0-8.348-4.938-8.901-11.691"/>
</g>
<g>
	<path class="st2" d="M80.895,54.729c3.654,6.768,2.063,24.818,2.063,24.818"/>
	<path class="st1" d="M80.895,54.729c3.654,6.768,2.063,24.818,2.063,24.818"/>
</g>
<g>
	<path class="st2" d="M67.218,38.086c0,0,10.021,9.875,13.677,16.643"/>
	<path class="st1" d="M67.218,38.086c0,0,10.021,9.875,13.677,16.643"/>
</g>
<g>
	<path class="st2" d="M67.218,59.574c1.628-8.717,0-21.488,0-21.488"/>
	<path class="st1" d="M67.218,59.574c1.628-8.717,0-21.488,0-21.488"/>
</g>
<g>
	<path class="st1" d="M46.018,89.646c14.29-8.094,19.572-21.354,21.2-30.072"/>
</g>
<g>
	<path class="st1" d="M54.039,56.164c-13.679,27.504-8.021,33.482-8.021,33.482"/>
</g>
<g>
	<path class="st3" d="M17.363,26.101c0,0,10.348-6.104,20.695,5.002"/>
</g>
<g>
	<path class="st3" d="M43.521,43.657c0,0-18.98-0.872-26.157-17.557"/>
</g>
<g>
	<path class="st2" d="M18.521,59.285c10.957-10.414,25-15.628,25-15.628"/>
	<path class="st3" d="M18.521,59.285c10.957-10.414,25-15.628,25-15.628"/>
</g>
<g>
	<path class="st3" d="M41.103,58.852c-12.955,5.336-22.582,0.434-22.582,0.434"/>
</g>
<g>
	<path class="st2" d="M67.218,38.086c-14.652,1.916-18.921,3.943-23.697,5.571"/>
	<path class="st3" d="M67.218,38.086c-14.652,1.916-18.921,3.943-23.697,5.571"/>
</g>
<circle class="st0" cx="54.039" cy="56.166" r="2.062"/>
<circle class="st0" cx="52.601" cy="31.104" r="2.062"/>
<path class="st0" d="M52.601,56.789"/>
<circle class="st0" cx="38.059" cy="31.104" r="2.062"/>
<circle class="st0" cx="41.103" cy="58.852" r="2.063"/>
<circle class="st0" cx="74.056" cy="67.856" r="2.062"/>
<circle class="st0" cx="79.498" cy="27.83" r="2.062"/>
<circle class="st0" cx="67.218" cy="38.085" r="2.063"/>
<circle class="st0" cx="80.895" cy="54.729" r="2.063"/>
<circle class="st0" cx="82.957" cy="79.546" r="2.062"/>
<circle class="st0" cx="67.218" cy="59.575" r="2.063"/>
<circle class="st0" cx="46.017" cy="89.646" r="2.063"/>
<circle class="st0" cx="18.521" cy="59.286" r="2.062"/>
<circle class="st0" cx="43.521" cy="43.658" r="2.062"/>
<circle class="st0" cx="17.363" cy="26.101" r="2.062"/>
<circle class="st0" cx="60.634" cy="19.996" r="2.062"/>
<circle class="st0" cx="42.183" cy="6.464" r="2.062"/>
<g>
</g>
<g>
</g>
<g>
</g>
<g>
</g>
<g>
</g>
<g>
</g>
</svg>
