<?xml version="1.0" encoding="utf-8"?>
<!-- Generator: Adobe Illustrator 16.0.0, SVG Export Plug-In . SVG Version: 6.00 Build 0)  -->
<!DOCTYPE svg PUBLIC "-//W3C//DTD SVG 1.1//EN" "http://www.w3.org/Graphics/SVG/1.1/DTD/svg11.dtd">
<svg version="1.1" id="Layer_1" xmlns="http://www.w3.org/2000/svg" xmlns:xlink="http://www.w3.org/1999/xlink" x="0px" y="0px"
	 width="100px" height="100px" viewBox="0 0 100 100" enable-background="new 0 0 100 100" xml:space="preserve">
<linearGradient id="SVGID_1_" gradientUnits="userSpaceOnUse" x1="15.7632" y1="53.0527" x2="42.7412" y2="53.0527">
	<stop  offset="0" style="stop-color:#C06328"/>
	<stop  offset="1" style="stop-color:#C02026"/>
	<stop  offset="1" style="stop-color:#CFCFCF"/>
</linearGradient>
<path fill="none" stroke="url(#SVGID_1_)" stroke-width="3" stroke-miterlimit="10" d="M42.289,45.625
	c0,0-12.379,3.914-25.553,15.145"/>
<linearGradient id="SVGID_2_" gradientUnits="userSpaceOnUse" x1="12.4766" y1="36.1338" x2="42.4326" y2="36.1338">
	<stop  offset="0" style="stop-color:#C06328"/>
	<stop  offset="1" style="stop-color:#C02026"/>
</linearGradient>
<path fill="none" stroke="url(#SVGID_2_)" stroke-width="3" stroke-miterlimit="10" d="M13.854,26.215
	c0,0,7.287,16.903,28.435,18.938"/>
<linearGradient id="SVGID_3_" gradientUnits="userSpaceOnUse" x1="83.4961" y1="70.8066" x2="88.3047" y2="70.8066">
	<stop  offset="0" style="stop-color:#C02026"/>
	<stop  offset="1" style="stop-color:#C06328"/>
</linearGradient>
<path fill="none" stroke="url(#SVGID_3_)" stroke-width="3" stroke-miterlimit="10" d="M86.5,81.84c0,0,1.334-13.14-1.583-21.736"/>
<g>
	<path fill="none" stroke="#C06228" stroke-width="3" stroke-miterlimit="10" d="M41.208,4.162c0,0-1.716,21.885,12.261,28.458"/>
</g>
<g>
	<path fill="none" stroke="#C02026" stroke-width="3" stroke-miterlimit="10" d="M68.8,39.012c0,0-2.11-13.045-7.255-19.938"/>
</g>
<path fill="none" stroke="#C02026" stroke-width="3" stroke-miterlimit="10" d="M82.334,27.708
	C76.548,37.995,68.8,39.012,68.8,39.012"/>
<g>
	
		<linearGradient id="SVGID_4_" gradientUnits="userSpaceOnUse" x1="67.1172" y1="-3.0928" x2="77.7461" y2="-3.0928" gradientTransform="matrix(1 0 0 -1 8.3999 76.04)">
		<stop  offset="0" style="stop-color:#BB642B"/>
		<stop  offset="0.1786" style="stop-color:#C06328"/>
		<stop  offset="0.8316" style="stop-color:#0A6C75"/>
	</linearGradient>
	<path fill="url(#SVGID_4_)" d="M86.146,84.707c0,0-8.606-5.453-10.629-11.148"/>
	<path fill="none" stroke="#C06228" stroke-width="3" stroke-linecap="round" stroke-miterlimit="10" d="M86.146,84.707
		c0,0-8.606-5.453-10.629-11.148"/>
</g>
<g>
	<path fill="none" stroke="#C02026" stroke-width="3" stroke-linecap="round" stroke-miterlimit="10" d="M68.8,39.012
		c0,0,11.046,10.884,15.073,18.341"/>
</g>
<g>
	<path fill="none" stroke="#C02026" stroke-width="3" stroke-linecap="round" stroke-miterlimit="10" d="M68.8,62.695
		c1.794-9.607,0-23.683,0-23.683"/>
</g>
<g>
	<g>
		<g>
			<g>
				<defs>
					<path id="SVGID_5_" d="M47.035,96.617l-0.862,0.527c-0.707,0.432-1.629,0.209-2.061-0.498
						c-0.432-0.707-0.208-1.629,0.498-2.062l0.084-0.051l0.81-0.498L47.035,96.617z"/>
				</defs>
				<clipPath id="SVGID_6_">
					<use xlink:href="#SVGID_5_"  overflow="visible"/>
				</clipPath>
				<g clip-path="url(#SVGID_6_)">
					
						<image overflow="visible" enable-background="new    " width="9" height="7" xlink:href="974EB405.png"  transform="matrix(0.8288 0 0 0.8911 39.5762 94.0371)">
					</image>
				</g>
			</g>
		</g>
		<g>
			<g>
				<defs>
					<path id="SVGID_7_" d="M67.132,63.35l0.193-0.93l0.012-0.059c0.169-0.812,0.963-1.33,1.772-1.162
						c0.813,0.168,1.332,0.961,1.164,1.771l-0.205,0.99L67.132,63.35z"/>
				</defs>
				<clipPath id="SVGID_8_">
					<use xlink:href="#SVGID_7_"  overflow="visible"/>
				</clipPath>
				<g clip-path="url(#SVGID_8_)">
					
						<image overflow="visible" enable-background="new    " width="5" height="8" xlink:href="974EB40B.png"  transform="matrix(0.8718 0 0 0.927 67.1309 56.5449)">
					</image>
				</g>
			</g>
		</g>
	</g>
</g>
<g>
	<path fill="none" stroke="#C06228" stroke-width="3" stroke-linecap="round" stroke-miterlimit="10" d="M52.689,59.625
		C39.214,89.107,45.434,95.84,45.434,95.84"/>
</g>
<g>
	<path fill="none" stroke="#C06228" stroke-width="3" stroke-miterlimit="10" d="M13.854,25.802c0,0,12.593-4.455,24.283,2.272"/>
</g>
<g>
	<path fill="none" stroke="#C06228" stroke-width="3" stroke-miterlimit="10" d="M40.017,61.898
		c-14.277,5.881-24.888,0.479-24.888,0.479"/>
</g>
<g>
	<path fill="none" stroke="#C02026" stroke-width="3" stroke-miterlimit="10" d="M68.8,39.012
		c-16.149,2.112-20.854,4.347-26.117,6.141"/>
</g>
<circle fill="#C06228" stroke="#C06228" stroke-width="3" stroke-miterlimit="10" cx="52.689" cy="59.627" r="2.271"/>
<circle fill="#C06228" stroke="#C06228" stroke-width="3" stroke-miterlimit="10" cx="53.469" cy="32.62" r="2.272"/>
<path fill="none" stroke="#1C0D0E" stroke-width="3" stroke-miterlimit="10" d="M52.689,59.625"/>
<circle fill="#C06228" stroke="#C06228" stroke-width="3" stroke-miterlimit="10" cx="38.137" cy="28.075" r="2.273"/>
<circle fill="#C06228" stroke="#C06228" stroke-width="3" stroke-miterlimit="10" cx="40.017" cy="61.9" r="2.272"/>
<circle fill="#C06228" stroke="#C06228" stroke-width="3" stroke-miterlimit="10" cx="75.493" cy="73.563" r="2.272"/>
<circle fill="#C02026" stroke="#C02026" stroke-width="3" stroke-miterlimit="10" cx="82.333" cy="27.708" r="2.273"/>
<circle fill="#C02026" stroke="#C02026" stroke-width="3" stroke-miterlimit="10" cx="68.8" cy="39.012" r="2.273"/>
<circle fill="#C02026" stroke="#C02026" stroke-width="3" stroke-miterlimit="10" cx="83.873" cy="57.354" r="2.273"/>
<circle fill="#C06328" stroke="#C06328" stroke-width="3" stroke-miterlimit="10" cx="86.146" cy="84.707" r="2.273"/>
<circle fill="#C02026" stroke="#C02026" stroke-width="3" stroke-miterlimit="10" cx="68.8" cy="62.695" r="2.273"/>
<circle fill="#C06328" stroke="#C06328" stroke-width="3" stroke-miterlimit="10" cx="45.434" cy="95.84" r="2.273"/>
<circle fill="#C06328" stroke="#C06328" stroke-width="3" stroke-miterlimit="10" cx="15.129" cy="62.377" r="2.273"/>
<circle fill="#C02026" stroke="#C02026" stroke-width="3" stroke-miterlimit="10" cx="42.683" cy="45.153" r="2.273"/>
<circle fill="#C06328" stroke="#C06328" stroke-width="3" stroke-miterlimit="10" cx="13.854" cy="25.802" r="2.273"/>
<circle fill="#C02026" stroke="#C02026" stroke-width="3" stroke-miterlimit="10" cx="61.544" cy="19.075" r="2.272"/>
<circle fill="#C06228" stroke="#C06228" stroke-width="3" stroke-miterlimit="10" cx="41.208" cy="4.162" r="2.272"/>
<linearGradient id="SVGID_9_" gradientUnits="userSpaceOnUse" x1="42.8931" y1="11.0981" x2="61.3047" y2="11.0981">
	<stop  offset="0" style="stop-color:#C06328"/>
	<stop  offset="1" style="stop-color:#C02026"/>
	<stop  offset="1" style="stop-color:#CFCFCF"/>
</linearGradient>
<path fill="none" stroke="url(#SVGID_9_)" stroke-width="3" stroke-miterlimit="10" d="M43.285,5.347c0,0,6.659,1.804,16.972,11.876
	"/>
<linearGradient id="SVGID_10_" gradientUnits="userSpaceOnUse" x1="46.4487" y1="80.0742" x2="69.457" y2="80.0742">
	<stop  offset="0" style="stop-color:#C06328"/>
	<stop  offset="1" style="stop-color:#C02026"/>
</linearGradient>
<path fill="none" stroke="url(#SVGID_10_)" stroke-width="3" stroke-miterlimit="10" d="M67.991,64.65
	c-1.469,6.725-6.063,19.064-20.645,29.966"/>
</svg>
